solid OpenSCAD_Model
  facet normal -0.980785 -4.33189e-17 -0.195091
    outer loop
      vertex 1.1 -2.1 4.66294e-16
      vertex 1.01627 1.5 0.420951
      vertex 1.1 1.5 -3.33067e-16
    endloop
  endfacet
  facet normal -0.980785 -0 -0.195091
    outer loop
      vertex 1.01627 1.5 0.420951
      vertex 1.1 -2.1 4.66294e-16
      vertex 1.01627 -2.1 0.420951
    endloop
  endfacet
  facet normal 0.980785 0 -0.195091
    outer loop
      vertex -1.01627 -2.1 0.420951
      vertex -1.1 1.5 -3.33067e-16
      vertex -1.01627 1.5 0.420951
    endloop
  endfacet
  facet normal 0.980785 -4.33189e-17 -0.195091
    outer loop
      vertex -1.1 1.5 -3.33067e-16
      vertex -1.01627 -2.1 0.420951
      vertex -1.1 -2.1 4.66294e-16
    endloop
  endfacet
  facet normal -0.195091 0 -0.980785
    outer loop
      vertex 0 -2.1 1.1
      vertex 0.420951 1.5 1.01627
      vertex 0.420951 -2.1 1.01627
    endloop
  endfacet
  facet normal -0.195091 0 -0.980785
    outer loop
      vertex 0.420951 1.5 1.01627
      vertex 0 -2.1 1.1
      vertex 0 1.5 1.1
    endloop
  endfacet
  facet normal -0.83147 0 -0.55557
    outer loop
      vertex 1.01627 -2.1 0.420951
      vertex 0.777817 1.5 0.777817
      vertex 1.01627 1.5 0.420951
    endloop
  endfacet
  facet normal -0.83147 -0 -0.55557
    outer loop
      vertex 0.777817 1.5 0.777817
      vertex 1.01627 -2.1 0.420951
      vertex 0.777817 -2.1 0.777817
    endloop
  endfacet
  facet normal -0.55557 0 -0.83147
    outer loop
      vertex 0.420951 -2.1 1.01627
      vertex 0.777817 1.5 0.777817
      vertex 0.777817 -2.1 0.777817
    endloop
  endfacet
  facet normal -0.55557 0 -0.83147
    outer loop
      vertex 0.777817 1.5 0.777817
      vertex 0.420951 -2.1 1.01627
      vertex 0.420951 1.5 1.01627
    endloop
  endfacet
  facet normal 0.55557 0 -0.83147
    outer loop
      vertex -0.777817 -2.1 0.777817
      vertex -0.420951 1.5 1.01627
      vertex -0.420951 -2.1 1.01627
    endloop
  endfacet
  facet normal 0.55557 0 -0.83147
    outer loop
      vertex -0.420951 1.5 1.01627
      vertex -0.777817 -2.1 0.777817
      vertex -0.777817 1.5 0.777817
    endloop
  endfacet
  facet normal 0.83147 0 -0.55557
    outer loop
      vertex -0.777817 -2.1 0.777817
      vertex -1.01627 1.5 0.420951
      vertex -0.777817 1.5 0.777817
    endloop
  endfacet
  facet normal 0.83147 0 -0.55557
    outer loop
      vertex -1.01627 1.5 0.420951
      vertex -0.777817 -2.1 0.777817
      vertex -1.01627 -2.1 0.420951
    endloop
  endfacet
  facet normal 0 -1 0
    outer loop
      vertex -1.195 -2.1 2.0698
      vertex 0 -2.1 1.1
      vertex 1.195 -2.1 2.0698
    endloop
  endfacet
  facet normal 0 -1 0
    outer loop
      vertex -1.195 -2.1 2.0698
      vertex -0.420951 -2.1 1.01627
      vertex 0 -2.1 1.1
    endloop
  endfacet
  facet normal 0 -1 0
    outer loop
      vertex -1.195 -2.1 2.0698
      vertex -0.777817 -2.1 0.777817
      vertex -0.420951 -2.1 1.01627
    endloop
  endfacet
  facet normal 0 -1 0
    outer loop
      vertex -1.195 -2.1 2.0698
      vertex -1.01627 -2.1 0.420951
      vertex -0.777817 -2.1 0.777817
    endloop
  endfacet
  facet normal 0 -1 0
    outer loop
      vertex -2.39 -2.1 4.66294e-16
      vertex -1.01627 -2.1 0.420951
      vertex -1.195 -2.1 2.0698
    endloop
  endfacet
  facet normal 0 -1 0
    outer loop
      vertex -2.39 -2.1 4.66294e-16
      vertex -1.1 -2.1 4.66294e-16
      vertex -1.01627 -2.1 0.420951
    endloop
  endfacet
  facet normal 0 -1 0
    outer loop
      vertex -2.39 -2.1 4.66294e-16
      vertex -1.01627 -2.1 -0.420951
      vertex -1.1 -2.1 4.66294e-16
    endloop
  endfacet
  facet normal 0 -1 0
    outer loop
      vertex -1.195 -2.1 -2.0698
      vertex -1.01627 -2.1 -0.420951
      vertex -2.39 -2.1 4.66294e-16
    endloop
  endfacet
  facet normal 0 -1 -0
    outer loop
      vertex -1.01627 -2.1 -0.420951
      vertex -1.195 -2.1 -2.0698
      vertex -0.777817 -2.1 -0.777817
    endloop
  endfacet
  facet normal 0 -1 -0
    outer loop
      vertex -0.420951 -2.1 -1.01627
      vertex -1.195 -2.1 -2.0698
      vertex 0 -2.1 -1.1
    endloop
  endfacet
  facet normal 0 -1 -0
    outer loop
      vertex -0.777817 -2.1 -0.777817
      vertex -1.195 -2.1 -2.0698
      vertex -0.420951 -2.1 -1.01627
    endloop
  endfacet
  facet normal 0 -1 0
    outer loop
      vertex 0.420951 -2.1 1.01627
      vertex 1.195 -2.1 2.0698
      vertex 0 -2.1 1.1
    endloop
  endfacet
  facet normal 0 -1 0
    outer loop
      vertex 0.777817 -2.1 0.777817
      vertex 1.195 -2.1 2.0698
      vertex 0.420951 -2.1 1.01627
    endloop
  endfacet
  facet normal 0 -1 0
    outer loop
      vertex 1.01627 -2.1 0.420951
      vertex 1.195 -2.1 2.0698
      vertex 0.777817 -2.1 0.777817
    endloop
  endfacet
  facet normal 0 -1 0
    outer loop
      vertex 2.39 -2.1 4.66294e-16
      vertex 1.01627 -2.1 0.420951
      vertex 1.1 -2.1 4.66294e-16
    endloop
  endfacet
  facet normal 0 -1 0
    outer loop
      vertex 1.01627 -2.1 0.420951
      vertex 2.39 -2.1 4.66294e-16
      vertex 1.195 -2.1 2.0698
    endloop
  endfacet
  facet normal 0 -1 0
    outer loop
      vertex 1.01627 -2.1 -0.420951
      vertex 2.39 -2.1 4.66294e-16
      vertex 1.1 -2.1 4.66294e-16
    endloop
  endfacet
  facet normal 0 -1 0
    outer loop
      vertex 1.195 -2.1 -2.0698
      vertex 1.01627 -2.1 -0.420951
      vertex 0.777817 -2.1 -0.777817
    endloop
  endfacet
  facet normal 0 -1 0
    outer loop
      vertex 1.195 -2.1 -2.0698
      vertex 0.777817 -2.1 -0.777817
      vertex 0.420951 -2.1 -1.01627
    endloop
  endfacet
  facet normal 0 -1 0
    outer loop
      vertex 1.195 -2.1 -2.0698
      vertex 0 -2.1 -1.1
      vertex -1.195 -2.1 -2.0698
    endloop
  endfacet
  facet normal 0 -1 0
    outer loop
      vertex 0 -2.1 -1.1
      vertex 1.195 -2.1 -2.0698
      vertex 0.420951 -2.1 -1.01627
    endloop
  endfacet
  facet normal 0 -1 0
    outer loop
      vertex 1.01627 -2.1 -0.420951
      vertex 1.195 -2.1 -2.0698
      vertex 2.39 -2.1 4.66294e-16
    endloop
  endfacet
  facet normal 0.195091 0 -0.980785
    outer loop
      vertex -0.420951 -2.1 1.01627
      vertex 0 1.5 1.1
      vertex 0 -2.1 1.1
    endloop
  endfacet
  facet normal 0.195091 0 -0.980785
    outer loop
      vertex 0 1.5 1.1
      vertex -0.420951 -2.1 1.01627
      vertex -0.420951 1.5 1.01627
    endloop
  endfacet
  facet normal 0.55557 0 0.83147
    outer loop
      vertex -0.777817 1.5 -0.777817
      vertex -0.420951 -2.1 -1.01627
      vertex -0.420951 1.5 -1.01627
    endloop
  endfacet
  facet normal 0.55557 0 0.83147
    outer loop
      vertex -0.420951 -2.1 -1.01627
      vertex -0.777817 1.5 -0.777817
      vertex -0.777817 -2.1 -0.777817
    endloop
  endfacet
  facet normal 0.980785 4.33189e-17 0.195091
    outer loop
      vertex -1.1 -2.1 4.66294e-16
      vertex -1.01627 1.5 -0.420951
      vertex -1.1 1.5 -3.33067e-16
    endloop
  endfacet
  facet normal 0.980785 0 0.195091
    outer loop
      vertex -1.01627 1.5 -0.420951
      vertex -1.1 -2.1 4.66294e-16
      vertex -1.01627 -2.1 -0.420951
    endloop
  endfacet
  facet normal -0.980785 0 0.195091
    outer loop
      vertex 1.01627 -2.1 -0.420951
      vertex 1.1 1.5 -3.33067e-16
      vertex 1.01627 1.5 -0.420951
    endloop
  endfacet
  facet normal -0.980785 4.33189e-17 0.195091
    outer loop
      vertex 1.1 1.5 -3.33067e-16
      vertex 1.01627 -2.1 -0.420951
      vertex 1.1 -2.1 4.66294e-16
    endloop
  endfacet
  facet normal -0.55557 0 0.83147
    outer loop
      vertex 0.420951 1.5 -1.01627
      vertex 0.777817 -2.1 -0.777817
      vertex 0.777817 1.5 -0.777817
    endloop
  endfacet
  facet normal -0.55557 0 0.83147
    outer loop
      vertex 0.777817 -2.1 -0.777817
      vertex 0.420951 1.5 -1.01627
      vertex 0.420951 -2.1 -1.01627
    endloop
  endfacet
  facet normal -0.195091 0 0.980785
    outer loop
      vertex 0 1.5 -1.1
      vertex 0.420951 -2.1 -1.01627
      vertex 0.420951 1.5 -1.01627
    endloop
  endfacet
  facet normal -0.195091 0 0.980785
    outer loop
      vertex 0.420951 -2.1 -1.01627
      vertex 0 1.5 -1.1
      vertex 0 -2.1 -1.1
    endloop
  endfacet
  facet normal -0.83147 0 0.55557
    outer loop
      vertex 0.777817 -2.1 -0.777817
      vertex 1.01627 1.5 -0.420951
      vertex 0.777817 1.5 -0.777817
    endloop
  endfacet
  facet normal -0.83147 0 0.55557
    outer loop
      vertex 1.01627 1.5 -0.420951
      vertex 0.777817 -2.1 -0.777817
      vertex 1.01627 -2.1 -0.420951
    endloop
  endfacet
  facet normal 0.195091 0 0.980785
    outer loop
      vertex -0.420951 1.5 -1.01627
      vertex 0 -2.1 -1.1
      vertex 0 1.5 -1.1
    endloop
  endfacet
  facet normal 0.195091 0 0.980785
    outer loop
      vertex 0 -2.1 -1.1
      vertex -0.420951 1.5 -1.01627
      vertex -0.420951 -2.1 -1.01627
    endloop
  endfacet
  facet normal 0.83147 -0 0.55557
    outer loop
      vertex -1.01627 -2.1 -0.420951
      vertex -0.777817 1.5 -0.777817
      vertex -1.01627 1.5 -0.420951
    endloop
  endfacet
  facet normal 0.83147 0 0.55557
    outer loop
      vertex -0.777817 1.5 -0.777817
      vertex -1.01627 -2.1 -0.420951
      vertex -0.777817 -2.1 -0.777817
    endloop
  endfacet
  facet normal -0.866025 0 -0.5
    outer loop
      vertex 2.39 -2.1 4.66294e-16
      vertex 1.195 -3.89999 2.0698
      vertex 1.195 -2.1 2.0698
    endloop
  endfacet
  facet normal -0.866025 -1.03229e-16 -0.5
    outer loop
      vertex 1.195 -3.89999 2.0698
      vertex 2.39 -2.1 4.66294e-16
      vertex 2.39 -3.89999 8.65972e-16
    endloop
  endfacet
  facet normal 0.866025 0 -0.5
    outer loop
      vertex -1.195 -3.89999 2.0698
      vertex -2.39 -2.1 4.66294e-16
      vertex -1.195 -2.1 2.0698
    endloop
  endfacet
  facet normal 0.866025 -1.11022e-16 -0.5
    outer loop
      vertex -2.39 -2.1 4.66294e-16
      vertex -1.195 -3.89999 2.0698
      vertex -2.39 -3.89999 8.65972e-16
    endloop
  endfacet
  facet normal 0 0 -1
    outer loop
      vertex -1.195 -3.89999 2.0698
      vertex 1.195 -2.1 2.0698
      vertex 1.195 -3.89999 2.0698
    endloop
  endfacet
  facet normal -0 0 -1
    outer loop
      vertex 1.195 -2.1 2.0698
      vertex -1.195 -3.89999 2.0698
      vertex -1.195 -2.1 2.0698
    endloop
  endfacet
  facet normal -0.866025 1.03229e-16 0.5
    outer loop
      vertex 1.195 -2.1 -2.0698
      vertex 2.39 -3.89999 8.65972e-16
      vertex 2.39 -2.1 4.66294e-16
    endloop
  endfacet
  facet normal -0.866025 0 0.5
    outer loop
      vertex 2.39 -3.89999 8.65972e-16
      vertex 1.195 -2.1 -2.0698
      vertex 1.195 -3.89999 -2.0698
    endloop
  endfacet
  facet normal -0 0 1
    outer loop
      vertex -1.195 -2.1 -2.0698
      vertex 1.195 -3.89999 -2.0698
      vertex 1.195 -2.1 -2.0698
    endloop
  endfacet
  facet normal 0 0 1
    outer loop
      vertex 1.195 -3.89999 -2.0698
      vertex -1.195 -2.1 -2.0698
      vertex -1.195 -3.89999 -2.0698
    endloop
  endfacet
  facet normal 0.866025 1.11022e-16 0.5
    outer loop
      vertex -2.39 -3.89999 8.65972e-16
      vertex -1.195 -2.1 -2.0698
      vertex -2.39 -2.1 4.66294e-16
    endloop
  endfacet
  facet normal 0.866025 0 0.5
    outer loop
      vertex -1.195 -2.1 -2.0698
      vertex -2.39 -3.89999 8.65972e-16
      vertex -1.195 -3.89999 -2.0698
    endloop
  endfacet
  facet normal 0 0 1
    outer loop
      vertex -3 1.16573e-15 5.25
      vertex 3 1.16573e-15 5.25
      vertex 3 1.5 5.25
    endloop
  endfacet
  facet normal 0 0 1
    outer loop
      vertex -3 1.16573e-15 5.25
      vertex 3 1.5 5.25
      vertex -3 1.5 5.25
    endloop
  endfacet
  facet normal 0 0 1
    outer loop
      vertex 3 1.16573e-15 5.25
      vertex -3 1.16573e-15 5.25
      vertex 3 -3.89999 5.25
    endloop
  endfacet
  facet normal 0 0 1
    outer loop
      vertex -3 1.16573e-15 5.25
      vertex -3 -3.89999 5.25
      vertex 3 -3.89999 5.25
    endloop
  endfacet
  facet normal 0 0 1
    outer loop
      vertex -5.25 -1.39999 5.25
      vertex -3 1.16573e-15 5.25
      vertex -5.25 1.16573e-15 5.25
    endloop
  endfacet
  facet normal 0 0 1
    outer loop
      vertex -3 1.16573e-15 5.25
      vertex -5.25 -1.39999 5.25
      vertex -3 -3.89999 5.25
    endloop
  endfacet
  facet normal -0 0 1
    outer loop
      vertex 3 1.16573e-15 5.25
      vertex 5.25 -1.39999 5.25
      vertex 5.25 1.16573e-15 5.25
    endloop
  endfacet
  facet normal 0 0 1
    outer loop
      vertex 5.25 -1.39999 5.25
      vertex 3 1.16573e-15 5.25
      vertex 3 -3.89999 5.25
    endloop
  endfacet
  facet normal -0 0 -1
    outer loop
      vertex -3 -1.16573e-15 -5.25
      vertex -5.25 -1.39999 -5.25
      vertex -5.25 -1.16573e-15 -5.25
    endloop
  endfacet
  facet normal 1.52153e-07 -2.44532e-07 -1
    outer loop
      vertex -3 -1.16573e-15 -5.25
      vertex -3 -3.89999 -5.25
      vertex -5.25 -1.39999 -5.25
    endloop
  endfacet
  facet normal 0 0 -1
    outer loop
      vertex -3 -1.16573e-15 -5.25
      vertex 3 1.5 -5.25
      vertex 3 -1.16573e-15 -5.25
    endloop
  endfacet
  facet normal -0 0 -1
    outer loop
      vertex 3 1.5 -5.25
      vertex -3 -1.16573e-15 -5.25
      vertex -3 1.5 -5.25
    endloop
  endfacet
  facet normal 0 -2.44532e-07 -1
    outer loop
      vertex -3 -3.89999 -5.25
      vertex 3 -1.16573e-15 -5.25
      vertex 3 -3.89999 -5.25
    endloop
  endfacet
  facet normal -0 -2.44532e-07 -1
    outer loop
      vertex 3 -1.16573e-15 -5.25
      vertex -3 -3.89999 -5.25
      vertex -3 -1.16573e-15 -5.25
    endloop
  endfacet
  facet normal -0 -0 -1
    outer loop
      vertex 5.25 -1.16573e-15 -5.25
      vertex 5.25 -1.39999 -5.25
      vertex 3 -1.16573e-15 -5.25
    endloop
  endfacet
  facet normal -1.52153e-07 -2.44532e-07 -1
    outer loop
      vertex 5.25 -1.39999 -5.25
      vertex 3 -3.89999 -5.25
      vertex 3 -1.16573e-15 -5.25
    endloop
  endfacet
  facet normal -1 0 0
    outer loop
      vertex -5.25 -1.16573e-15 -5.25
      vertex -5.25 -1.39999 5.25
      vertex -5.25 1.16573e-15 5.25
    endloop
  endfacet
  facet normal -1 0 -0
    outer loop
      vertex -5.25 -1.39999 5.25
      vertex -5.25 -1.16573e-15 -5.25
      vertex -5.25 -1.39999 -5.25
    endloop
  endfacet
  facet normal 0 1 -2.22045e-16
    outer loop
      vertex -3 -1.16573e-15 -5.25
      vertex -5.25 1.16573e-15 5.25
      vertex -3 1.16573e-15 5.25
    endloop
  endfacet
  facet normal 0 1 -2.22045e-16
    outer loop
      vertex -5.25 1.16573e-15 5.25
      vertex -3 -1.16573e-15 -5.25
      vertex -5.25 -1.16573e-15 -5.25
    endloop
  endfacet
  facet normal -1 0 0
    outer loop
      vertex -3 1.5 -5.25
      vertex -3 1.16573e-15 5.25
      vertex -3 1.5 5.25
    endloop
  endfacet
  facet normal -1 0 -0
    outer loop
      vertex -3 1.16573e-15 5.25
      vertex -3 1.5 -5.25
      vertex -3 -1.16573e-15 -5.25
    endloop
  endfacet
  facet normal 0 1 -8.61754e-08
    outer loop
      vertex 3 1.5 5.25
      vertex 0 1.5 1.1
      vertex -3 1.5 5.25
    endloop
  endfacet
  facet normal -1.49865e-08 1 -7.53418e-08
    outer loop
      vertex 3 1.5 5.25
      vertex 0.420951 1.5 1.01627
      vertex 0 1.5 1.1
    endloop
  endfacet
  facet normal -4.0114e-08 1 -6.00349e-08
    outer loop
      vertex 3 1.5 5.25
      vertex 0.777817 1.5 0.777817
      vertex 0.420951 1.5 1.01627
    endloop
  endfacet
  facet normal 2.1808e-07 1 -1.88329e-07
    outer loop
      vertex 3 1.5 5.25
      vertex 1.01627 1.5 0.420951
      vertex 0.777817 1.5 0.777817
    endloop
  endfacet
  facet normal -1.61953e-07 1 -3.22146e-08
    outer loop
      vertex 3 1.5 5.25
      vertex 1.1 1.5 -3.33067e-16
      vertex 1.01627 1.5 0.420951
    endloop
  endfacet
  facet normal 0 1 -9.08261e-08
    outer loop
      vertex 3 1.5 -5.25
      vertex 1.1 1.5 -3.33067e-16
      vertex 3 1.5 5.25
    endloop
  endfacet
  facet normal 1.49865e-08 1 -7.53418e-08
    outer loop
      vertex 0.420951 1.5 -1.01627
      vertex 3 1.5 -5.25
      vertex 0 1.5 -1.1
    endloop
  endfacet
  facet normal 4.0114e-08 1 -6.00349e-08
    outer loop
      vertex 0.777817 1.5 -0.777817
      vertex 3 1.5 -5.25
      vertex 0.420951 1.5 -1.01627
    endloop
  endfacet
  facet normal -2.1808e-07 1 -1.88329e-07
    outer loop
      vertex 1.01627 1.5 -0.420951
      vertex 3 1.5 -5.25
      vertex 0.777817 1.5 -0.777817
    endloop
  endfacet
  facet normal 1.61953e-07 1 -3.22146e-08
    outer loop
      vertex 1.1 1.5 -3.33067e-16
      vertex 3 1.5 -5.25
      vertex 1.01627 1.5 -0.420951
    endloop
  endfacet
  facet normal 1.49865e-08 1 -7.53418e-08
    outer loop
      vertex -0.420951 1.5 1.01627
      vertex -3 1.5 5.25
      vertex 0 1.5 1.1
    endloop
  endfacet
  facet normal 4.0114e-08 1 -6.00349e-08
    outer loop
      vertex -0.777817 1.5 0.777817
      vertex -3 1.5 5.25
      vertex -0.420951 1.5 1.01627
    endloop
  endfacet
  facet normal -2.1808e-07 1 -1.88329e-07
    outer loop
      vertex -1.01627 1.5 0.420951
      vertex -3 1.5 5.25
      vertex -0.777817 1.5 0.777817
    endloop
  endfacet
  facet normal 1.61953e-07 1 -3.22146e-08
    outer loop
      vertex -1.1 1.5 -3.33067e-16
      vertex -3 1.5 5.25
      vertex -1.01627 1.5 0.420951
    endloop
  endfacet
  facet normal -1.61953e-07 1 -3.22146e-08
    outer loop
      vertex -3 1.5 -5.25
      vertex -1.1 1.5 -3.33067e-16
      vertex -1.01627 1.5 -0.420951
    endloop
  endfacet
  facet normal 0 1 -8.61754e-08
    outer loop
      vertex -3 1.5 -5.25
      vertex 0 1.5 -1.1
      vertex 3 1.5 -5.25
    endloop
  endfacet
  facet normal -1.49865e-08 1 -7.53418e-08
    outer loop
      vertex 0 1.5 -1.1
      vertex -3 1.5 -5.25
      vertex -0.420951 1.5 -1.01627
    endloop
  endfacet
  facet normal 0 1 -9.08261e-08
    outer loop
      vertex -1.1 1.5 -3.33067e-16
      vertex -3 1.5 -5.25
      vertex -3 1.5 5.25
    endloop
  endfacet
  facet normal 2.1808e-07 1 -1.88329e-07
    outer loop
      vertex -0.777817 1.5 -0.777817
      vertex -3 1.5 -5.25
      vertex -1.01627 1.5 -0.420951
    endloop
  endfacet
  facet normal -4.0114e-08 1 -6.00349e-08
    outer loop
      vertex -0.420951 1.5 -1.01627
      vertex -3 1.5 -5.25
      vertex -0.777817 1.5 -0.777817
    endloop
  endfacet
  facet normal 1 -0 0
    outer loop
      vertex 3 1.16573e-15 5.25
      vertex 3 1.5 -5.25
      vertex 3 1.5 5.25
    endloop
  endfacet
  facet normal 1 0 0
    outer loop
      vertex 3 1.5 -5.25
      vertex 3 1.16573e-15 5.25
      vertex 3 -1.16573e-15 -5.25
    endloop
  endfacet
  facet normal 0 1 -2.22045e-16
    outer loop
      vertex 5.25 -1.16573e-15 -5.25
      vertex 3 1.16573e-15 5.25
      vertex 5.25 1.16573e-15 5.25
    endloop
  endfacet
  facet normal 0 1 -2.22045e-16
    outer loop
      vertex 3 1.16573e-15 5.25
      vertex 5.25 -1.16573e-15 -5.25
      vertex 3 -1.16573e-15 -5.25
    endloop
  endfacet
  facet normal 1 -0 0
    outer loop
      vertex 5.25 -1.39999 5.25
      vertex 5.25 -1.16573e-15 -5.25
      vertex 5.25 1.16573e-15 5.25
    endloop
  endfacet
  facet normal 1 0 0
    outer loop
      vertex 5.25 -1.16573e-15 -5.25
      vertex 5.25 -1.39999 5.25
      vertex 5.25 -1.39999 -5.25
    endloop
  endfacet
  facet normal 0.743294 -0.668965 6.07595e-08
    outer loop
      vertex 5.25 -1.39999 -5.25
      vertex 5.25 -1.39999 5.25
      vertex 3 -3.89999 5.25
    endloop
  endfacet
  facet normal 0.743294 -0.668965 6.07595e-08
    outer loop
      vertex 5.25 -1.39999 -5.25
      vertex 3 -3.89999 5.25
      vertex 3 -3.89999 -5.25
    endloop
  endfacet
  facet normal 0 -1 7.49697e-08
    outer loop
      vertex -3 -3.89999 5.25
      vertex -1.195 -3.89999 2.0698
      vertex 3 -3.89999 5.25
    endloop
  endfacet
  facet normal 3.51285e-08 -1 9.49077e-08
    outer loop
      vertex -3 -3.89999 5.25
      vertex -2.39 -3.89999 8.65972e-16
      vertex -1.195 -3.89999 2.0698
    endloop
  endfacet
  facet normal 0 -1 7.49697e-08
    outer loop
      vertex -1.195 -3.89999 -2.0698
      vertex -3 -3.89999 -5.25
      vertex 1.195 -3.89999 -2.0698
    endloop
  endfacet
  facet normal -3.51285e-08 -1 9.49077e-08
    outer loop
      vertex -2.39 -3.89999 8.65972e-16
      vertex -3 -3.89999 -5.25
      vertex -1.195 -3.89999 -2.0698
    endloop
  endfacet
  facet normal 7.09987e-14 -1 9.08261e-08
    outer loop
      vertex -3 -3.89999 -5.25
      vertex -2.39 -3.89999 8.65972e-16
      vertex -3 -3.89999 5.25
    endloop
  endfacet
  facet normal 0 -1 7.49697e-08
    outer loop
      vertex 1.195 -3.89999 2.0698
      vertex 3 -3.89999 5.25
      vertex -1.195 -3.89999 2.0698
    endloop
  endfacet
  facet normal -3.51285e-08 -1 9.49077e-08
    outer loop
      vertex 2.39 -3.89999 8.65972e-16
      vertex 3 -3.89999 5.25
      vertex 1.195 -3.89999 2.0698
    endloop
  endfacet
  facet normal -7.09987e-14 -1 9.08261e-08
    outer loop
      vertex 2.39 -3.89999 8.65972e-16
      vertex 3 -3.89999 -5.25
      vertex 3 -3.89999 5.25
    endloop
  endfacet
  facet normal 3.51285e-08 -1 9.49077e-08
    outer loop
      vertex 1.195 -3.89999 -2.0698
      vertex 3 -3.89999 -5.25
      vertex 2.39 -3.89999 8.65972e-16
    endloop
  endfacet
  facet normal 0 -1 7.49697e-08
    outer loop
      vertex 3 -3.89999 -5.25
      vertex 1.195 -3.89999 -2.0698
      vertex -3 -3.89999 -5.25
    endloop
  endfacet
  facet normal -0.743294 -0.668965 6.07595e-08
    outer loop
      vertex -3 -3.89999 -5.25
      vertex -3 -3.89999 5.25
      vertex -5.25 -1.39999 5.25
    endloop
  endfacet
  facet normal -0.743294 -0.668965 6.07595e-08
    outer loop
      vertex -3 -3.89999 -5.25
      vertex -5.25 -1.39999 5.25
      vertex -5.25 -1.39999 -5.25
    endloop
  endfacet
endsolid OpenSCAD_Model
