0
SECTION
2
HEADER
9
$INSUNITS
70
4
9
$ACADVER
1
AC1014
9
$HANDSEED
5
FFFF
0
ENDSEC
0
SECTION
2
TABLES
0
TABLE
2
VPORT
5
8
100
AcDbSymbolTable
0
ENDTAB
0
TABLE
2
LTYPE
5
5
100
AcDbSymbolTable
0
LTYPE
5
14
100
AcDbSymbolTableRecord
100
AcDbLinetypeTableRecord
2
BYBLOCK
70
0
0
LTYPE
5
15
100
AcDbSymbolTableRecord
100
AcDbLinetypeTableRecord
2
BYLAYER
70
0
0
ENDTAB
0
TABLE
2
LAYER
5
2
100
AcDbSymbolTable
70
2
0
LAYER
5
50
100
AcDbSymbolTableRecord
100
AcDbLayerTableRecord
2
0
70
0
6
CONTINUOUS
0
ENDTAB
0
TABLE
2
STYLE
5
3
100
AcDbSymbolTable
70
1
0
STYLE
5
11
100
AcDbSymbolTableRecord
100
AcDbTextStyleTableRecord
2
STANDARD
70
0
0
ENDTAB
0
TABLE
2
VIEW
5
6
100
AcDbSymbolTable
70
0
0
ENDTAB
0
TABLE
2
UCS
5
7
100
AcDbSymbolTable
70
0
0
ENDTAB
0
TABLE
2
APPID
5
9
100
AcDbSymbolTable
70
2
0
APPID
5
12
100
AcDbSymbolTableRecord
100
AcDbRegAppTableRecord
2
ACAD
70
0
0
ENDTAB
0
TABLE
2
DIMSTYLE
5
A
100
AcDbSymbolTable
70
1
0
ENDTAB
0
TABLE
2
BLOCK_RECORD
5
1
100
AcDbSymbolTable
70
1
0
BLOCK_RECORD
5
1F
100
AcDbSymbolTableRecord
100
AcDbBlockTableRecord
2
*MODEL_SPACE
0
BLOCK_RECORD
5
1B
100
AcDbSymbolTableRecord
100
AcDbBlockTableRecord
2
*PAPER_SPACE
0
ENDTAB
0
ENDSEC
0
SECTION
2
BLOCKS
0
BLOCK
5
20
100
AcDbEntity
100
AcDbBlockBegin
2
*MODEL_SPACE
0
ENDBLK
5
21
100
AcDbEntity
100
AcDbBlockEnd
0
BLOCK
5
1C
100
AcDbEntity
100
AcDbBlockBegin
2
*PAPER_SPACE
0
ENDBLK
5
1D
100
AcDbEntity
100
AcDbBlockEnd
0
ENDSEC
0
SECTION
2
ENTITIES
0
LWPOLYLINE
5
100
100
AcDbEntity
8
0
100
AcDbPolyline
90
68
70
1
43
0.0
10
33.900000000000063
20
-10.210000000000004
10
33.690000000000062
20
-9.9999999999999982
10
33.900000000000063
20
-9.7899999999999938
10
33.900000000000055
20
-7.160660171779794
10
36.560660171779816
20
-4.5000000000000036
10
38.200000000000117
20
-4.5000000000000089
10
38.200000000000109
20
-6.6050000000000093
10
38.815000000000104
20
-6.605000000000012
10
40.000000000000128
20
-5.4200000000000141
10
40.000000000000135
20
-1.5000000000000102
42
0.41421356237305862
10
38.500000000000128
20
-9.1593399531575415e-15
10
34.580000000000041
20
0
10
33.395000000000039
20
-1.1849999999999983
10
33.395000000000039
20
-1.7999999999999949
10
35.500000000000043
20
-1.7999999999999994
10
35.500000000000057
20
-3.4393398282202026
10
32.839339828220268
20
-6.0999999999999943
10
30.210000000000047
20
-6.0999999999999854
10
30.000000000000039
20
-6.309999999999989
10
29.790000000000028
20
-6.0999999999999854
10
27.16066017177981
20
-6.0999999999999872
10
24.500000000000025
20
-3.4393398282201892
10
24.500000000000043
20
-1.7999999999999861
10
26.605000000000043
20
-1.7999999999999872
10
26.605000000000043
20
-1.1849999999999905
10
25.420000000000051
20
9.9920072216264089e-15
10
21.499999999999957
20
9.9920072216264089e-15
42
0.41421356237305879
10
19.999999999999954
20
-1.499999999999986
10
19.999999999999957
20
-5.4199999999999893
10
21.184999999999967
20
-6.6049999999999907
10
21.799999999999962
20
-6.6049999999999898
10
21.799999999999965
20
-4.4999999999999885
10
23.439339828220266
20
-4.4999999999999876
10
26.100000000000016
20
-7.1606601717797851
10
26.100000000000009
20
-9.7899999999999849
10
26.310000000000006
20
-9.9999999999999893
10
26.100000000000001
20
-10.209999999999994
10
26.100000000000009
20
-12.839339828220195
10
23.439339828220255
20
-15.499999999999986
10
21.799999999999955
20
-15.499999999999986
10
21.799999999999958
20
-13.394999999999984
10
21.18499999999996
20
-13.394999999999978
10
19.999999999999947
20
-14.579999999999981
10
19.999999999999936
20
-18.499999999999982
42
0.41421356237305779
10
21.499999999999936
20
-19.999999999999979
10
25.42000000000003
20
-19.999999999999993
10
26.605000000000025
20
-18.814999999999991
10
26.605000000000025
20
-18.199999999999996
10
24.500000000000025
20
-18.199999999999989
10
24.500000000000011
20
-16.560660171779787
10
27.160660171779796
20
-13.899999999999991
10
29.790000000000013
20
-13.900000000000002
10
30.000000000000032
20
-13.689999999999998
10
30.21000000000004
20
-13.900000000000002
10
32.839339828220261
20
-13.900000000000002
10
35.500000000000036
20
-16.560660171779801
10
35.500000000000021
20
-18.200000000000003
10
33.395000000000017
20
-18.200000000000003
10
33.395000000000017
20
-18.814999999999998
10
34.580000000000013
20
-20
10
38.500000000000099
20
-20
42
0.41421356237305862
10
40.000000000000107
20
-18.500000000000007
10
40.000000000000107
20
-14.580000000000002
10
38.815000000000097
20
-13.395000000000001
10
38.200000000000102
20
-13.395000000000001
10
38.200000000000102
20
-15.500000000000004
10
36.560660171779801
20
-15.500000000000004
10
33.900000000000048
20
-12.839339828220204
0
CIRCLE
5
101
100
AcDbEntity
8
0
100
AcDbCircle
10
30.000000000000053
20
-9.9999999999999982
30
0
40
2.2999999999999998
210
0
220
0
230
1
0
ENDSEC
0
SECTION
2
OBJECTS
0
DICTIONARY
5
C
100
AcDbDictionary
3
ACAD_GROUP
350
D
3
ACAD_MLINESTYLE
350
17
0
DICTIONARY
5
D
100
AcDbDictionary
0
DICTIONARY
5
1A
330
C
100
AcDbDictionary
0
DICTIONARY
5
17
100
AcDbDictionary
0
ENDSEC
0
EOF
