  0
SECTION
  2
BLOCKS
  0
ENDSEC
  0
SECTION
  2
ENTITIES
  0
LINE
  8
0
 10
106.427
 20
-105.763
 11
107
 21
-104
  0
LINE
  8
0
 10
107
 20
-104
 11
107
 21
104
  0
LINE
  8
0
 10
107
 20
104
 11
106.427
 21
105.763
  0
LINE
  8
0
 10
106.427
 20
105.763
 11
104.927
 21
106.853
  0
LINE
  8
0
 10
104.927
 20
106.853
 11
59
 21
106.853
  0
LINE
  8
0
 10
59
 20
106.853
 11
59
 21
29
  0
LINE
  8
0
 10
59
 20
29
 11
58.427
 21
27.2366
  0
LINE
  8
0
 10
58.427
 20
27.2366
 11
56.927
 21
26.1468
  0
LINE
  8
0
 10
56.927
 20
26.1468
 11
-56.927
 21
26.1468
  0
LINE
  8
0
 10
-56.927
 20
26.1468
 11
-58.427
 21
27.2366
  0
LINE
  8
0
 10
-58.427
 20
27.2366
 11
-59
 21
29
  0
LINE
  8
0
 10
-59
 20
29
 11
-59
 21
106.853
  0
LINE
  8
0
 10
-59
 20
106.853
 11
-104.927
 21
106.853
  0
LINE
  8
0
 10
-104.927
 20
106.853
 11
-106.427
 21
105.763
  0
LINE
  8
0
 10
-106.427
 20
105.763
 11
-107
 21
104
  0
LINE
  8
0
 10
-107
 20
104
 11
-107
 21
-104
  0
LINE
  8
0
 10
-107
 20
-104
 11
-106.427
 21
-105.763
  0
LINE
  8
0
 10
-106.427
 20
-105.763
 11
-104.927
 21
-106.853
  0
LINE
  8
0
 10
-104.927
 20
-106.853
 11
104.927
 21
-106.853
  0
LINE
  8
0
 10
104.927
 20
-106.853
 11
106.427
 21
-105.763
  0
LINE
  8
0
 10
-104.882
 20
102.786
 11
-105.427
 21
104.464
  0
LINE
  8
0
 10
-105.427
 20
104.464
 11
-104
 21
105.5
  0
LINE
  8
0
 10
-104
 20
105.5
 11
-102.573
 21
104.464
  0
LINE
  8
0
 10
-102.573
 20
104.464
 11
-103.118
 21
102.786
  0
LINE
  8
0
 10
-103.118
 20
102.786
 11
-104.882
 21
102.786
  0
LINE
  8
0
 10
102.786
 20
103.118
 11
102.786
 21
104.882
  0
LINE
  8
0
 10
102.786
 20
104.882
 11
104.464
 21
105.427
  0
LINE
  8
0
 10
104.464
 20
105.427
 11
105.5
 21
104
  0
LINE
  8
0
 10
105.5
 20
104
 11
104.464
 21
102.573
  0
LINE
  8
0
 10
104.464
 20
102.573
 11
102.786
 21
103.118
  0
LINE
  8
0
 10
-21.4
 20
15.8751
 11
-22.6311
 21
17.3423
  0
LINE
  8
0
 10
-22.6311
 20
17.3423
 11
-22.6311
 21
19.2576
  0
LINE
  8
0
 10
-22.6311
 20
19.2576
 11
-21.4
 21
20.7249
  0
LINE
  8
0
 10
-21.4
 20
20.7249
 11
-19.5138
 21
21.0574
  0
LINE
  8
0
 10
-19.5138
 20
21.0574
 11
-17.8551
 21
20.0998
  0
LINE
  8
0
 10
-17.8551
 20
20.0998
 11
-17.2
 21
18.3
  0
LINE
  8
0
 10
-17.2
 20
18.3
 11
-17.8551
 21
16.5002
  0
LINE
  8
0
 10
-17.8551
 20
16.5002
 11
-19.5138
 21
15.5425
  0
LINE
  8
0
 10
-19.5138
 20
15.5425
 11
-21.4
 21
15.8751
  0
LINE
  8
0
 10
18.6
 20
15.8751
 11
17.3689
 21
17.3423
  0
LINE
  8
0
 10
17.3689
 20
17.3423
 11
17.3689
 21
19.2576
  0
LINE
  8
0
 10
17.3689
 20
19.2576
 11
18.6
 21
20.7249
  0
LINE
  8
0
 10
18.6
 20
20.7249
 11
20.4862
 21
21.0574
  0
LINE
  8
0
 10
20.4862
 20
21.0574
 11
22.1449
 21
20.0998
  0
LINE
  8
0
 10
22.1449
 20
20.0998
 11
22.8
 21
18.3
  0
LINE
  8
0
 10
22.8
 20
18.3
 11
22.1449
 21
16.5002
  0
LINE
  8
0
 10
22.1449
 20
16.5002
 11
20.4862
 21
15.5425
  0
LINE
  8
0
 10
20.4862
 20
15.5425
 11
18.6
 21
15.8751
  0
LINE
  8
0
 10
-14.927
 20
-15.1532
 11
-16.427
 21
-14.0633
  0
LINE
  8
0
 10
-16.427
 20
-14.0633
 11
-17
 21
-12.3
  0
LINE
  8
0
 10
-17
 20
-12.3
 11
-17
 21
12.3
  0
LINE
  8
0
 10
-17
 20
12.3
 11
-16.427
 21
14.0633
  0
LINE
  8
0
 10
-16.427
 20
14.0633
 11
-14.927
 21
15.1532
  0
LINE
  8
0
 10
-14.927
 20
15.1532
 11
14.927
 21
15.1532
  0
LINE
  8
0
 10
14.927
 20
15.1532
 11
16.427
 21
14.0633
  0
LINE
  8
0
 10
16.427
 20
14.0633
 11
17
 21
12.3
  0
LINE
  8
0
 10
17
 20
12.3
 11
17
 21
-12.3
  0
LINE
  8
0
 10
17
 20
-12.3
 11
16.427
 21
-14.0633
  0
LINE
  8
0
 10
16.427
 20
-14.0633
 11
14.927
 21
-15.1532
  0
LINE
  8
0
 10
14.927
 20
-15.1532
 11
-14.927
 21
-15.1532
  0
LINE
  8
0
 10
-83.456
 20
-46.8814
 11
-85.3312
 21
-46.3608
  0
LINE
  8
0
 10
-85.3312
 20
-46.3608
 11
-87.0507
 21
-45.4492
  0
LINE
  8
0
 10
-87.0507
 20
-45.4492
 11
-88.534
 21
-44.1893
  0
LINE
  8
0
 10
-88.534
 20
-44.1893
 11
-89.7117
 21
-42.64
  0
LINE
  8
0
 10
-89.7117
 20
-42.64
 11
-90.5289
 21
-40.8737
  0
LINE
  8
0
 10
-90.5289
 20
-40.8737
 11
-90.9472
 21
-38.9731
  0
LINE
  8
0
 10
-90.9472
 20
-38.9731
 11
-90.9472
 21
0.973068
  0
LINE
  8
0
 10
-90.9472
 20
0.973068
 11
-90.5289
 21
2.8737
  0
LINE
  8
0
 10
-90.5289
 20
2.8737
 11
-89.7117
 21
4.63998
  0
LINE
  8
0
 10
-89.7117
 20
4.63998
 11
-88.534
 21
6.18929
  0
LINE
  8
0
 10
-88.534
 20
6.18929
 11
-87.0507
 21
7.44919
  0
LINE
  8
0
 10
-87.0507
 20
7.44919
 11
-85.3312
 21
8.36078
  0
LINE
  8
0
 10
-85.3312
 20
8.36078
 11
-83.456
 21
8.88142
  0
LINE
  8
0
 10
-83.456
 20
8.88142
 11
-81.5128
 21
8.98679
  0
LINE
  8
0
 10
-81.5128
 20
8.98679
 11
-43.5128
 21
8.98679
  0
LINE
  8
0
 10
-43.5128
 20
8.98679
 11
-41.5923
 21
8.67194
  0
LINE
  8
0
 10
-41.5923
 20
8.67194
 11
-39.7843
 21
7.9516
  0
LINE
  8
0
 10
-39.7843
 20
7.9516
 11
-38.1735
 21
6.85945
  0
LINE
  8
0
 10
-38.1735
 20
6.85945
 11
-36.8352
 21
5.44656
  0
LINE
  8
0
 10
-36.8352
 20
5.44656
 11
-35.8318
 21
3.77899
  0
LINE
  8
0
 10
-35.8318
 20
3.77899
 11
-35.2104
 21
1.93472
  0
LINE
  8
0
 10
-35.2104
 20
1.93472
 11
-35
 21
0
  0
LINE
  8
0
 10
-35
 20
0
 11
-35.2104
 21
-1.93472
  0
LINE
  8
0
 10
-35.2104
 20
-1.93472
 11
-35.8318
 21
-3.77899
  0
LINE
  8
0
 10
-35.8318
 20
-3.77899
 11
-36.8352
 21
-5.44656
  0
LINE
  8
0
 10
-36.8352
 20
-5.44656
 11
-38.1735
 21
-6.85945
  0
LINE
  8
0
 10
-38.1735
 20
-6.85945
 11
-76.1735
 21
-44.8595
  0
LINE
  8
0
 10
-76.1735
 20
-44.8595
 11
-77.7843
 21
-45.9516
  0
LINE
  8
0
 10
-77.7843
 20
-45.9516
 11
-79.5923
 21
-46.6719
  0
LINE
  8
0
 10
-79.5923
 20
-46.6719
 11
-81.5128
 21
-46.9868
  0
LINE
  8
0
 10
-81.5128
 20
-46.9868
 11
-83.456
 21
-46.8814
  0
LINE
  8
0
 10
79.5923
 20
-46.6719
 11
77.7843
 21
-45.9516
  0
LINE
  8
0
 10
77.7843
 20
-45.9516
 11
76.1735
 21
-44.8595
  0
LINE
  8
0
 10
76.1735
 20
-44.8595
 11
38.1735
 21
-6.85945
  0
LINE
  8
0
 10
38.1735
 20
-6.85945
 11
36.8352
 21
-5.44656
  0
LINE
  8
0
 10
36.8352
 20
-5.44656
 11
35.8318
 21
-3.77899
  0
LINE
  8
0
 10
35.8318
 20
-3.77899
 11
35.2104
 21
-1.93472
  0
LINE
  8
0
 10
35.2104
 20
-1.93472
 11
35
 21
0
  0
LINE
  8
0
 10
35
 20
0
 11
35.2104
 21
1.93472
  0
LINE
  8
0
 10
35.2104
 20
1.93472
 11
35.8318
 21
3.77899
  0
LINE
  8
0
 10
35.8318
 20
3.77899
 11
36.8352
 21
5.44656
  0
LINE
  8
0
 10
36.8352
 20
5.44656
 11
38.1735
 21
6.85945
  0
LINE
  8
0
 10
38.1735
 20
6.85945
 11
39.7843
 21
7.9516
  0
LINE
  8
0
 10
39.7843
 20
7.9516
 11
41.5923
 21
8.67194
  0
LINE
  8
0
 10
41.5923
 20
8.67194
 11
43.5128
 21
8.98679
  0
LINE
  8
0
 10
43.5128
 20
8.98679
 11
81.5128
 21
8.98679
  0
LINE
  8
0
 10
81.5128
 20
8.98679
 11
83.456
 21
8.88142
  0
LINE
  8
0
 10
83.456
 20
8.88142
 11
85.3312
 21
8.36078
  0
LINE
  8
0
 10
85.3312
 20
8.36078
 11
87.0507
 21
7.44919
  0
LINE
  8
0
 10
87.0507
 20
7.44919
 11
88.534
 21
6.18929
  0
LINE
  8
0
 10
88.534
 20
6.18929
 11
89.7117
 21
4.63998
  0
LINE
  8
0
 10
89.7117
 20
4.63998
 11
90.5289
 21
2.8737
  0
LINE
  8
0
 10
90.5289
 20
2.8737
 11
90.9472
 21
0.973068
  0
LINE
  8
0
 10
90.9472
 20
0.973068
 11
90.9472
 21
-38.9731
  0
LINE
  8
0
 10
90.9472
 20
-38.9731
 11
90.5289
 21
-40.8737
  0
LINE
  8
0
 10
90.5289
 20
-40.8737
 11
89.7117
 21
-42.64
  0
LINE
  8
0
 10
89.7117
 20
-42.64
 11
88.534
 21
-44.1893
  0
LINE
  8
0
 10
88.534
 20
-44.1893
 11
87.0507
 21
-45.4492
  0
LINE
  8
0
 10
87.0507
 20
-45.4492
 11
85.3312
 21
-46.3608
  0
LINE
  8
0
 10
85.3312
 20
-46.3608
 11
83.456
 21
-46.8814
  0
LINE
  8
0
 10
83.456
 20
-46.8814
 11
81.5128
 21
-46.9868
  0
LINE
  8
0
 10
81.5128
 20
-46.9868
 11
79.5923
 21
-46.6719
  0
LINE
  8
0
 10
18.6
 20
-20.7249
 11
17.3689
 21
-19.2576
  0
LINE
  8
0
 10
17.3689
 20
-19.2576
 11
17.3689
 21
-17.3423
  0
LINE
  8
0
 10
17.3689
 20
-17.3423
 11
18.6
 21
-15.8751
  0
LINE
  8
0
 10
18.6
 20
-15.8751
 11
20.4862
 21
-15.5425
  0
LINE
  8
0
 10
20.4862
 20
-15.5425
 11
22.1449
 21
-16.5002
  0
LINE
  8
0
 10
22.1449
 20
-16.5002
 11
22.8
 21
-18.3
  0
LINE
  8
0
 10
22.8
 20
-18.3
 11
22.1449
 21
-20.0998
  0
LINE
  8
0
 10
22.1449
 20
-20.0998
 11
20.4862
 21
-21.0574
  0
LINE
  8
0
 10
20.4862
 20
-21.0574
 11
18.6
 21
-20.7249
  0
LINE
  8
0
 10
-21.4
 20
-20.7249
 11
-22.6311
 21
-19.2576
  0
LINE
  8
0
 10
-22.6311
 20
-19.2576
 11
-22.6311
 21
-17.3423
  0
LINE
  8
0
 10
-22.6311
 20
-17.3423
 11
-21.4
 21
-15.8751
  0
LINE
  8
0
 10
-21.4
 20
-15.8751
 11
-19.5138
 21
-15.5425
  0
LINE
  8
0
 10
-19.5138
 20
-15.5425
 11
-17.8551
 21
-16.5002
  0
LINE
  8
0
 10
-17.8551
 20
-16.5002
 11
-17.2
 21
-18.3
  0
LINE
  8
0
 10
-17.2
 20
-18.3
 11
-17.8551
 21
-20.0998
  0
LINE
  8
0
 10
-17.8551
 20
-20.0998
 11
-19.5138
 21
-21.0574
  0
LINE
  8
0
 10
-19.5138
 20
-21.0574
 11
-21.4
 21
-20.7249
  0
LINE
  8
0
 10
53.5659
 20
-60.6766
 11
51.7259
 21
-59.9586
  0
LINE
  8
0
 10
51.7259
 20
-59.9586
 11
50.2188
 21
-58.6821
  0
LINE
  8
0
 10
50.2188
 20
-58.6821
 11
32.5411
 21
-41.0044
  0
LINE
  8
0
 10
32.5411
 20
-41.0044
 11
31.53
 21
-39.3077
  0
LINE
  8
0
 10
31.53
 20
-39.3077
 11
31.1247
 21
-37.3746
  0
LINE
  8
0
 10
31.1247
 20
-37.3746
 11
31.369
 21
-35.4146
  0
LINE
  8
0
 10
31.369
 20
-35.4146
 11
32.2365
 21
-33.6402
  0
LINE
  8
0
 10
32.2365
 20
-33.6402
 11
33.6402
 21
-32.2365
  0
LINE
  8
0
 10
33.6402
 20
-32.2365
 11
35.4146
 21
-31.369
  0
LINE
  8
0
 10
35.4146
 20
-31.369
 11
37.3746
 21
-31.1247
  0
LINE
  8
0
 10
37.3746
 20
-31.1247
 11
39.3077
 21
-31.53
  0
LINE
  8
0
 10
39.3077
 20
-31.53
 11
41.0044
 21
-32.5411
  0
LINE
  8
0
 10
41.0044
 20
-32.5411
 11
58.6821
 21
-50.2188
  0
LINE
  8
0
 10
58.6821
 20
-50.2188
 11
59.9586
 21
-51.7259
  0
LINE
  8
0
 10
59.9586
 20
-51.7259
 11
60.6766
 21
-53.5659
  0
LINE
  8
0
 10
60.6766
 20
-53.5659
 11
60.7582
 21
-55.5394
  0
LINE
  8
0
 10
60.7582
 20
-55.5394
 11
60.1946
 21
-57.4324
  0
LINE
  8
0
 10
60.1946
 20
-57.4324
 11
59.0469
 21
-59.0399
  0
LINE
  8
0
 10
59.0469
 20
-59.0399
 11
59.0399
 21
-59.0469
  0
LINE
  8
0
 10
59.0399
 20
-59.0469
 11
57.4324
 21
-60.1946
  0
LINE
  8
0
 10
57.4324
 20
-60.1946
 11
55.5394
 21
-60.7582
  0
LINE
  8
0
 10
55.5394
 20
-60.7582
 11
53.5659
 21
-60.6766
  0
LINE
  8
0
 10
-57.4324
 20
-60.1946
 11
-59.0399
 21
-59.0469
  0
LINE
  8
0
 10
-59.0399
 20
-59.0469
 11
-59.0469
 21
-59.0399
  0
LINE
  8
0
 10
-59.0469
 20
-59.0399
 11
-60.1946
 21
-57.4324
  0
LINE
  8
0
 10
-60.1946
 20
-57.4324
 11
-60.7582
 21
-55.5394
  0
LINE
  8
0
 10
-60.7582
 20
-55.5394
 11
-60.6766
 21
-53.5659
  0
LINE
  8
0
 10
-60.6766
 20
-53.5659
 11
-59.9586
 21
-51.7259
  0
LINE
  8
0
 10
-59.9586
 20
-51.7259
 11
-58.6821
 21
-50.2188
  0
LINE
  8
0
 10
-58.6821
 20
-50.2188
 11
-41.0044
 21
-32.5411
  0
LINE
  8
0
 10
-41.0044
 20
-32.5411
 11
-39.3077
 21
-31.53
  0
LINE
  8
0
 10
-39.3077
 20
-31.53
 11
-37.3746
 21
-31.1247
  0
LINE
  8
0
 10
-37.3746
 20
-31.1247
 11
-35.4146
 21
-31.369
  0
LINE
  8
0
 10
-35.4146
 20
-31.369
 11
-33.6402
 21
-32.2365
  0
LINE
  8
0
 10
-33.6402
 20
-32.2365
 11
-32.2365
 21
-33.6402
  0
LINE
  8
0
 10
-32.2365
 20
-33.6402
 11
-31.369
 21
-35.4146
  0
LINE
  8
0
 10
-31.369
 20
-35.4146
 11
-31.1247
 21
-37.3746
  0
LINE
  8
0
 10
-31.1247
 20
-37.3746
 11
-31.53
 21
-39.3077
  0
LINE
  8
0
 10
-31.53
 20
-39.3077
 11
-32.5411
 21
-41.0044
  0
LINE
  8
0
 10
-32.5411
 20
-41.0044
 11
-50.2188
 21
-58.6821
  0
LINE
  8
0
 10
-50.2188
 20
-58.6821
 11
-51.7259
 21
-59.9586
  0
LINE
  8
0
 10
-51.7259
 20
-59.9586
 11
-53.5659
 21
-60.6766
  0
LINE
  8
0
 10
-53.5659
 20
-60.6766
 11
-55.5394
 21
-60.7582
  0
LINE
  8
0
 10
-55.5394
 20
-60.7582
 11
-57.4324
 21
-60.1946
  0
LINE
  8
0
 10
-36.0045
 20
-91.4472
 11
-37.9052
 21
-91.0289
  0
LINE
  8
0
 10
-37.9052
 20
-91.0289
 11
-39.6714
 21
-90.2117
  0
LINE
  8
0
 10
-39.6714
 20
-90.2117
 11
-41.2207
 21
-89.034
  0
LINE
  8
0
 10
-41.2207
 20
-89.034
 11
-42.4806
 21
-87.5507
  0
LINE
  8
0
 10
-42.4806
 20
-87.5507
 11
-43.3922
 21
-85.8312
  0
LINE
  8
0
 10
-43.3922
 20
-85.8312
 11
-43.9129
 21
-83.956
  0
LINE
  8
0
 10
-43.9129
 20
-83.956
 11
-44.0182
 21
-82.0128
  0
LINE
  8
0
 10
-44.0182
 20
-82.0128
 11
-43.7034
 21
-80.0923
  0
LINE
  8
0
 10
-43.7034
 20
-80.0923
 11
-42.983
 21
-78.2843
  0
LINE
  8
0
 10
-42.983
 20
-78.2843
 11
-41.8909
 21
-76.6735
  0
LINE
  8
0
 10
-41.8909
 20
-76.6735
 11
-6.85945
 21
-39.1735
  0
LINE
  8
0
 10
-6.85945
 20
-39.1735
 11
-5.44656
 21
-37.8352
  0
LINE
  8
0
 10
-5.44656
 20
-37.8352
 11
-3.77899
 21
-36.8318
  0
LINE
  8
0
 10
-3.77899
 20
-36.8318
 11
-1.93472
 21
-36.2104
  0
LINE
  8
0
 10
-1.93472
 20
-36.2104
 11
0
 21
-36
  0
LINE
  8
0
 10
0
 20
-36
 11
1.93472
 21
-36.2104
  0
LINE
  8
0
 10
1.93472
 20
-36.2104
 11
3.77899
 21
-36.8318
  0
LINE
  8
0
 10
3.77899
 20
-36.8318
 11
5.44656
 21
-37.8352
  0
LINE
  8
0
 10
5.44656
 20
-37.8352
 11
6.85945
 21
-39.1735
  0
LINE
  8
0
 10
6.85945
 20
-39.1735
 11
41.8909
 21
-76.6735
  0
LINE
  8
0
 10
41.8909
 20
-76.6735
 11
42.983
 21
-78.2843
  0
LINE
  8
0
 10
42.983
 20
-78.2843
 11
43.7034
 21
-80.0923
  0
LINE
  8
0
 10
43.7034
 20
-80.0923
 11
44.0182
 21
-82.0128
  0
LINE
  8
0
 10
44.0182
 20
-82.0128
 11
43.9129
 21
-83.956
  0
LINE
  8
0
 10
43.9129
 20
-83.956
 11
43.3922
 21
-85.8312
  0
LINE
  8
0
 10
43.3922
 20
-85.8312
 11
42.4806
 21
-87.5507
  0
LINE
  8
0
 10
42.4806
 20
-87.5507
 11
41.2207
 21
-89.034
  0
LINE
  8
0
 10
41.2207
 20
-89.034
 11
39.6714
 21
-90.2117
  0
LINE
  8
0
 10
39.6714
 20
-90.2117
 11
37.9052
 21
-91.0289
  0
LINE
  8
0
 10
37.9052
 20
-91.0289
 11
36.0045
 21
-91.4472
  0
LINE
  8
0
 10
36.0045
 20
-91.4472
 11
-36.0045
 21
-91.4472
  0
LINE
  8
0
 10
88.9213
 20
-96.0319
 11
87.0813
 21
-95.3139
  0
LINE
  8
0
 10
87.0813
 20
-95.3139
 11
85.5741
 21
-94.0374
  0
LINE
  8
0
 10
85.5741
 20
-94.0374
 11
67.8964
 21
-76.3598
  0
LINE
  8
0
 10
67.8964
 20
-76.3598
 11
66.8854
 21
-74.663
  0
LINE
  8
0
 10
66.8854
 20
-74.663
 11
66.4801
 21
-72.7299
  0
LINE
  8
0
 10
66.4801
 20
-72.7299
 11
66.7243
 21
-70.7699
  0
LINE
  8
0
 10
66.7243
 20
-70.7699
 11
67.5918
 21
-68.9955
  0
LINE
  8
0
 10
67.5918
 20
-68.9955
 11
68.9955
 21
-67.5918
  0
LINE
  8
0
 10
68.9955
 20
-67.5918
 11
70.7699
 21
-66.7243
  0
LINE
  8
0
 10
70.7699
 20
-66.7243
 11
72.7299
 21
-66.4801
  0
LINE
  8
0
 10
72.7299
 20
-66.4801
 11
74.663
 21
-66.8854
  0
LINE
  8
0
 10
74.663
 20
-66.8854
 11
76.3598
 21
-67.8964
  0
LINE
  8
0
 10
76.3598
 20
-67.8964
 11
94.0374
 21
-85.5741
  0
LINE
  8
0
 10
94.0374
 20
-85.5741
 11
95.3139
 21
-87.0813
  0
LINE
  8
0
 10
95.3139
 20
-87.0813
 11
96.0319
 21
-88.9213
  0
LINE
  8
0
 10
96.0319
 20
-88.9213
 11
96.1136
 21
-90.8947
  0
LINE
  8
0
 10
96.1136
 20
-90.8947
 11
95.55
 21
-92.7878
  0
LINE
  8
0
 10
95.55
 20
-92.7878
 11
94.4023
 21
-94.3952
  0
LINE
  8
0
 10
94.4023
 20
-94.3952
 11
94.3952
 21
-94.4023
  0
LINE
  8
0
 10
94.3952
 20
-94.4023
 11
92.7878
 21
-95.55
  0
LINE
  8
0
 10
92.7878
 20
-95.55
 11
90.8947
 21
-96.1136
  0
LINE
  8
0
 10
90.8947
 20
-96.1136
 11
88.9213
 21
-96.0319
  0
LINE
  8
0
 10
-92.7878
 20
-95.55
 11
-94.3952
 21
-94.4023
  0
LINE
  8
0
 10
-94.3952
 20
-94.4023
 11
-94.4023
 21
-94.3952
  0
LINE
  8
0
 10
-94.4023
 20
-94.3952
 11
-95.55
 21
-92.7878
  0
LINE
  8
0
 10
-95.55
 20
-92.7878
 11
-96.1136
 21
-90.8947
  0
LINE
  8
0
 10
-96.1136
 20
-90.8947
 11
-96.0319
 21
-88.9213
  0
LINE
  8
0
 10
-96.0319
 20
-88.9213
 11
-95.3139
 21
-87.0813
  0
LINE
  8
0
 10
-95.3139
 20
-87.0813
 11
-94.0374
 21
-85.5741
  0
LINE
  8
0
 10
-94.0374
 20
-85.5741
 11
-76.3598
 21
-67.8964
  0
LINE
  8
0
 10
-76.3598
 20
-67.8964
 11
-74.663
 21
-66.8854
  0
LINE
  8
0
 10
-74.663
 20
-66.8854
 11
-72.7299
 21
-66.4801
  0
LINE
  8
0
 10
-72.7299
 20
-66.4801
 11
-70.7699
 21
-66.7243
  0
LINE
  8
0
 10
-70.7699
 20
-66.7243
 11
-68.9955
 21
-67.5918
  0
LINE
  8
0
 10
-68.9955
 20
-67.5918
 11
-67.5918
 21
-68.9955
  0
LINE
  8
0
 10
-67.5918
 20
-68.9955
 11
-66.7243
 21
-70.7699
  0
LINE
  8
0
 10
-66.7243
 20
-70.7699
 11
-66.4801
 21
-72.7299
  0
LINE
  8
0
 10
-66.4801
 20
-72.7299
 11
-66.8854
 21
-74.663
  0
LINE
  8
0
 10
-66.8854
 20
-74.663
 11
-67.8964
 21
-76.3598
  0
LINE
  8
0
 10
-67.8964
 20
-76.3598
 11
-85.5741
 21
-94.0374
  0
LINE
  8
0
 10
-85.5741
 20
-94.0374
 11
-87.0813
 21
-95.3139
  0
LINE
  8
0
 10
-87.0813
 20
-95.3139
 11
-88.9213
 21
-96.0319
  0
LINE
  8
0
 10
-88.9213
 20
-96.0319
 11
-90.8947
 21
-96.1136
  0
LINE
  8
0
 10
-90.8947
 20
-96.1136
 11
-92.7878
 21
-95.55
  0
LINE
  8
0
 10
-105.5
 20
-104
 11
-104.464
 21
-102.573
  0
LINE
  8
0
 10
-104.464
 20
-102.573
 11
-102.786
 21
-103.118
  0
LINE
  8
0
 10
-102.786
 20
-103.118
 11
-102.786
 21
-104.882
  0
LINE
  8
0
 10
-102.786
 20
-104.882
 11
-104.464
 21
-105.427
  0
LINE
  8
0
 10
-104.464
 20
-105.427
 11
-105.5
 21
-104
  0
LINE
  8
0
 10
102.573
 20
-104.464
 11
103.118
 21
-102.786
  0
LINE
  8
0
 10
103.118
 20
-102.786
 11
104.882
 21
-102.786
  0
LINE
  8
0
 10
104.882
 20
-102.786
 11
105.427
 21
-104.464
  0
LINE
  8
0
 10
105.427
 20
-104.464
 11
104
 21
-105.5
  0
LINE
  8
0
 10
104
 20
-105.5
 11
102.573
 21
-104.464
  0
ENDSEC
  0
SECTION
  2
OBJECTS
  0
DICTIONARY
  0
ENDSEC
  0
EOF
